<svg xmlns="http://www.w3.org/2000/svg" viewBox="0 0 220 220" role="img" aria-labelledby="title desc"><title id="title">Livro de Receitas do Miguel</title><desc id="desc">Logo simples em vetor com livro e estrela Miguelin</desc><defs><linearGradient id="g" x1="0" x2="1" y1="0" y2="1"><stop offset="0" stop-color="#ffb86b"/><stop offset="1" stop-color="#ef5d4a"/></linearGradient></defs><rect width="220" height="220" rx="52" fill="#fff7ed"/><path d="M55 59c0-9 7-16 16-16h46c14 0 25 11 25 25v109c0-14-11-25-25-25H71c-9 0-16-7-16-16V59Z" fill="#ffffff" stroke="#2b2118" stroke-width="8"/><path d="M165 43h-48c-14 0-25 11-25 25v109c0-14 11-25 25-25h48V43Z" fill="url(#g)" stroke="#2b2118" stroke-width="8"/><path d="M110 68v86" stroke="#2b2118" stroke-width="6" stroke-linecap="round"/><path d="m143 75 8 17 19 2-14 13 4 19-17-10-17 10 4-19-14-13 19-2 8-17Z" fill="#fff7ed" stroke="#2b2118" stroke-width="5" stroke-linejoin="round"/><path d="M69 83h28M69 104h22M69 125h28" stroke="#2b2118" stroke-width="6" stroke-linecap="round"/></svg>