<svg xmlns="http://www.w3.org/2000/svg" viewBox="0 0 256 256" role="img" aria-labelledby="title desc">
<title id="title">Livro de Receitas do Miguel</title>
<desc id="desc">Logo simples com livro aberto, letra M e estrela Miguelin</desc>
<rect width="256" height="256" rx="56" fill="#fff7ed"/>
<path d="M52 72c0-9 7-16 16-16h52c12 0 22 10 22 22v116c0-12-10-22-22-22H68c-9 0-16-7-16-16V72Z" fill="#ffffff" stroke="#2b2118" stroke-width="10" stroke-linejoin="round"/>
<path d="M204 72c0-9-7-16-16-16h-52c-12 0-22 10-22 22v116c0-12 10-22 22-22h52c9 0 16-7 16-16V72Z" fill="#e86149" stroke="#2b2118" stroke-width="10" stroke-linejoin="round"/>
<path d="M128 80v104" stroke="#2b2118" stroke-width="8" stroke-linecap="round"/>
<path d="M78 100h30M78 124h24M78 148h30" stroke="#2b2118" stroke-width="8" stroke-linecap="round"/>
<path d="M149 150V98l22 28 22-28v52" fill="none" stroke="#fff7ed" stroke-width="10" stroke-linecap="round" stroke-linejoin="round"/>
<path d="m128 28 10 21 23 3-17 16 4 23-20-11-20 11 4-23-17-16 23-3 10-21Z" fill="#ffb86b" stroke="#2b2118" stroke-width="8" stroke-linejoin="round"/>
</svg>